<?xml version="1.0" encoding="UTF-8"?>
<svg width="800" height="600" viewBox="0 0 800 600" xmlns="http://www.w3.org/2000/svg">
  <!-- Background gradient -->
  <defs>
    <linearGradient id="skyGradient" x1="0%" y1="0%" x2="0%" y2="100%">
      <stop offset="0%" stop-color="#87CEEB" />
      <stop offset="100%" stop-color="#E0F7FA" />
    </linearGradient>
    
    <!-- Shield gradient -->
    <linearGradient id="shieldGradient" x1="0%" y1="0%" x2="100%" y2="100%">
      <stop offset="0%" stop-color="#4FC3F7" stop-opacity="0.3" />
      <stop offset="100%" stop-color="#2196F3" stop-opacity="0.1" />
    </linearGradient>
    
    <!-- Shield shine effect -->
    <radialGradient id="shieldShine" cx="30%" cy="30%" r="70%" fx="30%" fy="30%">
      <stop offset="0%" stop-color="white" stop-opacity="0.5" />
      <stop offset="100%" stop-color="white" stop-opacity="0" />
    </radialGradient>
    
    <!-- House shadow -->
    <filter id="dropShadow" x="-20%" y="-20%" width="140%" height="140%">
      <feGaussianBlur in="SourceAlpha" stdDeviation="5" />
      <feOffset dx="3" dy="3" result="offsetblur" />
      <feComponentTransfer>
        <feFuncA type="linear" slope="0.3" />
      </feComponentTransfer>
      <feMerge>
        <feMergeNode />
        <feMergeNode in="SourceGraphic" />
      </feMerge>
    </filter>
  </defs>
  
  <!-- Sky background -->
  <rect width="800" height="600" fill="url(#skyGradient)" />
  
  <!-- Sun -->
  <circle cx="650" cy="100" r="50" fill="#FFD54F" />
  <circle cx="650" cy="100" r="60" fill="#FFD54F" opacity="0.3" />
  <circle cx="650" cy="100" r="70" fill="#FFD54F" opacity="0.1" />
  
  <!-- Clouds -->
  <g opacity="0.9">
    <ellipse cx="150" cy="120" rx="60" ry="40" fill="white" />
    <ellipse cx="200" cy="100" rx="70" ry="45" fill="white" />
    <ellipse cx="250" cy="130" rx="50" ry="35" fill="white" />
    
    <ellipse cx="550" cy="150" rx="50" ry="30" fill="white" />
    <ellipse cx="600" cy="170" rx="40" ry="25" fill="white" />
  </g>
  
  <!-- Lawn -->
  <path d="M0,450 C100,420 250,440 400,430 S650,410 800,450 L800,600 L0,600 Z" fill="#81C784" />
  
  <!-- House -->
  <g filter="url(#dropShadow)">
    <!-- Main structure -->
    <rect x="250" y="280" width="300" height="200" fill="#FFECB3" />
    
    <!-- Roof -->
    <polygon points="250,280 400,180 550,280" fill="#D84315" />
    
    <!-- Door -->
    <rect x="360" y="380" width="80" height="100" fill="#795548" />
    <circle cx="425" cy="430" r="5" fill="#FFC107" />
    
    <!-- Windows -->
    <rect x="280" y="310" width="70" height="70" fill="#E3F2FD" />
    <rect x="450" y="310" width="70" height="70" fill="#E3F2FD" />
    <line x1="280" y1="345" x2="350" y2="345" stroke="#90A4AE" stroke-width="2" />
    <line x1="315" y1="310" x2="315" y2="380" stroke="#90A4AE" stroke-width="2" />
    <line x1="450" y1="345" x2="520" y2="345" stroke="#90A4AE" stroke-width="2" />
    <line x1="485" y1="310" x2="485" y2="380" stroke="#90A4AE" stroke-width="2" />
  </g>
  
  <!-- Protective Shield -->
  <path d="M200,200 C200,400 400,500 400,500 C400,500 600,400 600,200 C500,220 400,150 400,150 C400,150 300,220 200,200 Z" 
        fill="url(#shieldGradient)" 
        stroke="#4FC3F7" 
        stroke-width="3"
        stroke-opacity="0.5"
        opacity="0.7" />
  
  <!-- Shield shine effect -->
  <path d="M200,200 C200,400 400,500 400,500 C400,500 600,400 600,200 C500,220 400,150 400,150 C400,150 300,220 200,200 Z" 
        fill="url(#shieldShine)" 
        opacity="0.5" />
        
  <!-- Small weather symbols bouncing off the shield -->
  <g opacity="0.7">
    <!-- Raindrop -->
    <path d="M250,250 L260,240 L270,250 C270,260 250,260 250,250 Z" fill="#4FC3F7" />
    
    <!-- Snowflake -->
    <g fill="#B3E5FC">
      <circle cx="350" cy="220" r="5" />
      <circle cx="340" cy="210" r="3" />
      <circle cx="360" cy="210" r="3" />
      <circle cx="340" cy="230" r="3" />
      <circle cx="360" cy="230" r="3" />
    </g>
    
    <!-- Sun ray -->
    <polygon points="450,230 470,220 480,240 460,250" fill="#FFD54F" />
    
    <!-- Dust particles -->
    <circle cx="530" cy="270" r="4" fill="#BDBDBD" />
    <circle cx="550" cy="250" r="3" fill="#BDBDBD" />
    <circle cx="520" cy="240" r="2" fill="#BDBDBD" />
  </g>
  
  <!-- Text at bottom if needed -->
  <text x="400" y="580" font-family="Arial, sans-serif" font-size="20" font-weight="bold" text-anchor="middle" fill="#37474F">
    Protective Paint Technology
  </text>
</svg>